<svg version="1.2" xmlns="http://www.w3.org/2000/svg" viewBox="0 0 725 344" width="725" height="344">
	<style>
		.s0 { opacity: 1;fill: #fff6e2 } 
		.s1 { fill: #fff6e2 } 
		.s2 { opacity: 1;fill: #ab5f64 } 
		.s3 { opacity: .11;fill: #965d5b } 
	</style>
	<path id="Path 0" fill-rule="evenodd" class="s0" d="m76 60.08c6.73-0.03 13.57 0.51 16.5 1.3 2.75 0.75 6.58 2.15 8.5 3.13 3.46 1.75 3.61 1.74 13.25-1.37 7.45-2.4 11.58-3.14 17.5-3.16 4.26-0.01 9.1 0.43 10.75 0.98 1.72 0.56 3.8 2.39 4.86 4.26 1.02 1.81 1.7 4.17 1.5 5.25-0.23 1.25-2.39 2.94-5.86 4.59-3.03 1.43-6.54 3.92-7.81 5.52-1.27 1.61-3.04 5.17-3.94 7.92-1.33 4.11-1.68 10.77-1.94 37.25-0.17 17.74 0.03 32.22 0.44 32.19 0.41-0.04 3.29-3.52 6.4-7.75 3.11-4.23 10.46-13.99 16.33-21.69 5.88-7.7 13.88-18.72 17.79-24.5 3.91-5.77 7.93-12.41 8.92-14.75 1-2.34 1.59-5.49 1.32-7-0.27-1.51-1.51-3.71-2.75-4.88-1.24-1.18-3.72-2.86-5.51-3.75-2.66-1.32-3.25-2.21-3.28-4.87-0.01-2.22 0.81-4.04 2.59-5.75 2.43-2.33 3.28-2.49 12.28-2.42 7.28 0.06 10.89 0.58 19.66 4.15l6.75-2.36c4.79-1.68 8.93-2.37 14.25-2.37 4.13 0 8.51 0.45 9.75 1 1.24 0.56 2.81 2.13 3.5 3.5 0.69 1.38 1.25 3.85 1.25 5.5 0 2.8-0.38 3.1-5.75 4.58-3.16 0.87-7.96 3.01-10.66 4.75-2.71 1.74-8.33 6.79-12.5 11.21-4.18 4.42-12.98 15.22-19.57 24-6.59 8.78-15.27 20.68-19.28 26.46-4.02 5.78-7.3 10.84-7.28 11.25 0.02 0.41 1.73 1.02 3.79 1.34 2.06 0.33 6 1.64 8.75 2.93 2.75 1.28 7.11 4.05 9.69 6.15 2.57 2.11 6.78 6.53 9.35 9.83 2.57 3.3 6.85 10.5 9.52 16 2.68 5.5 8.74 21.47 13.47 35.5 4.73 14.03 9.99 28.88 11.68 33 1.69 4.13 5.15 11.06 7.68 15.41 2.54 4.35 6.86 10.37 9.61 13.38 2.75 3 6.8 6.48 9 7.72 2.2 1.23 5.57 2.53 7.5 2.87 1.93 0.34 5.19 0.17 7.25-0.38 2.43-0.65 4.19-1.9 5-3.55 1.16-2.37 0.97-2.8-2.89-6.25-3.01-2.69-4.34-4.79-4.87-7.7-0.41-2.24-0.27-5.54 0.31-7.5 0.58-1.93 2.54-4.88 4.37-6.58 2.14-1.97 4.94-3.35 7.83-3.85 2.48-0.43 6.52-0.46 9-0.06 3.28 0.52 5.48 1.69 8.13 4.35 2.2 2.2 4.12 5.42 4.87 8.14 0.67 2.48 1.02 6.98 0.77 10-0.25 3.02-1.52 7.75-2.82 10.5-1.3 2.75-4.41 7.06-6.91 9.58-2.5 2.52-6.79 5.74-9.54 7.15-2.75 1.41-7.7 3.28-11 4.15-3.43 0.91-10.07 1.59-15.5 1.59-5.92 0.01-12.51-0.7-17.5-1.89-4.4-1.05-10.47-2.99-13.5-4.31-3.03-1.32-8.43-4.39-12-6.81-3.57-2.42-9.15-7.12-12.39-10.43-3.25-3.32-7.72-8.73-9.95-12.03-2.23-3.3-6.39-10.95-9.24-17-2.85-6.05-8.59-20-12.76-31-4.16-11-8.99-23.15-10.72-27-1.73-3.85-4.76-9.7-6.74-13-1.97-3.3-4.96-7.7-6.64-9.78-1.68-2.08-3.51-3.76-4.06-3.75-0.55 0.02-3.81 4.31-13.5 19.03v14c0 7.7 0.47 17.49 1.05 21.75 0.58 4.26 2.15 10.11 3.5 13 1.53 3.28 3.67 6 5.7 7.25 1.79 1.09 4.15 2.01 5.25 2.02 1.1 0.02 2.8 0.81 3.78 1.76 0.98 0.94 1.77 2.51 1.75 3.47-0.02 0.96-0.71 3.1-1.53 4.75q-1.5 3-5.75 4.59c-3.18 1.18-6.78 1.48-14.25 1.18-7.9-0.31-11.36-0.96-23-5.72l-6.5 2.65c-4.99 2.05-8.71 2.76-16 3.09-5.22 0.23-11.3-0.06-13.5-0.64-2.2-0.59-5.01-1.99-6.25-3.11-1.55-1.41-2.26-3.21-2.29-5.79-0.03-3.32 0.34-3.9 3.25-5.06 1.81-0.73 4.42-1.87 5.79-2.55 1.38-0.68 3.52-2.78 4.77-4.68 1.25-1.9 3.05-6.84 4-10.96 1.55-6.71 1.73-14.59 1.73-75 0-61.43-0.16-68.02-1.75-73.25-0.99-3.25-3.16-7.31-5-9.33-2.79-3.07-3.89-3.58-7.75-3.61-2.47-0.02-5.96 0.69-7.75 1.58-1.79 0.88-4.17 2.85-5.28 4.36-1.12 1.51-2.02 3.99-2 5.5 0.03 2.44 0.54 2.86 4.53 3.75 2.48 0.55 5.63 2.12 7 3.5 1.38 1.37 3 4.19 3.62 6.25 0.62 2.06 0.86 5.33 0.53 7.25-0.32 1.92-1.62 5.03-2.87 6.9-1.25 1.87-3.85 4.23-5.78 5.25-2.17 1.15-5.6 1.86-9 1.88-3.86 0.01-6.85-0.69-10-2.34-2.88-1.5-5.48-3.93-7.23-6.77-1.51-2.43-3.19-6.89-3.75-9.92-0.69-3.69-0.69-7.48-0.03-11.5 0.55-3.3 2.08-8.25 3.41-11 1.32-2.75 4.4-7.03 6.83-9.5 2.43-2.47 6.86-5.71 9.85-7.18 2.98-1.48 7.9-3.36 10.92-4.19 3.32-0.9 10.06-1.52 17-1.55zm540 54.06c4.13-0.06 10.42 0.51 14 1.26 3.58 0.75 9.31 2.76 12.75 4.48 3.44 1.72 8.27 5.14 10.75 7.62 2.48 2.47 5.68 6.86 7.12 9.75 1.44 2.89 3.24 8.18 3.98 11.75 0.98 4.68 1.37 15.48 1.4 38.5 0.02 22.51 0.4 33.16 1.27 35.9 0.67 2.14 2.36 4.77 3.73 5.84 1.81 1.42 3.46 1.81 6 1.42 2.03-0.3 4.03-0.03 4.77 0.66 0.69 0.65 1.26 2.19 1.25 3.43-0.01 1.24-0.69 3.6-1.52 5.25-0.98 1.96-3.31 3.86-6.75 5.49-2.95 1.4-8.1 2.77-11.75 3.12-3.63 0.35-8.93 0.14-12-0.48-3.02-0.62-7.64-2.47-10.25-4.13-2.61-1.65-5.76-4.63-9.25-10.24l-2.5 2.98c-1.37 1.65-4.08 4.17-6 5.61-1.92 1.44-6.31 3.53-9.75 4.64-4.15 1.33-9.02 2.02-14.5 2.03-5.69 0.02-10.42-0.65-15.25-2.14-5.11-1.58-8.22-3.31-11.5-6.38-2.48-2.32-5.62-6.64-7-9.61-2.17-4.68-2.5-6.77-2.48-15.89 0.01-9.54 0.29-11.08 3-16.88 1.76-3.77 4.83-8.11 7.48-10.59 2.48-2.31 7.42-5.69 11-7.5 3.58-1.82 13.7-5.74 22.5-8.72 9.33-3.15 16.94-6.33 18.25-7.61 1.49-1.45 2.47-3.91 2.87-7.2 0.34-2.75 0.11-7.59-0.5-10.75-0.72-3.67-2.11-6.9-3.87-8.92-1.51-1.75-4.55-3.99-6.75-4.98-2.2-0.99-5.46-1.82-7.25-1.83-1.79-0.01-4.49 0.46-6 1.05-1.51 0.58-3.77 2.05-5.03 3.25-1.25 1.2-2.26 2.74-2.25 3.43 0.02 0.69 1.61 2.82 3.53 4.75 3.12 3.12 3.5 4.06 3.47 8.75-0.02 3.41-0.72 6.39-2 8.5-1.08 1.79-3.43 4.01-5.22 4.93-2 1.03-5.75 1.7-9.75 1.75-5.29 0.06-7.23-0.39-10.44-2.43-2.4-1.53-4.63-4.06-5.73-6.5-1.16-2.61-1.79-6.43-1.79-11 0-4.88 0.6-8.29 1.98-11.25 1.09-2.34 3.89-6.1 6.23-8.37 2.34-2.26 6.27-5.12 8.75-6.36 2.48-1.24 6.08-2.76 8-3.38 1.92-0.63 6.2-1.54 9.5-2.02 3.3-0.48 9.38-0.92 13.5-0.98zm-7.28 76.86c-2.2 1.93-4.9 5.3-5.99 7.5-1.1 2.2-2.21 6.47-2.48 9.5-0.33 3.78 0.02 6.67 1.13 9.25 0.89 2.06 2.86 4.53 4.37 5.48 1.57 0.98 4.76 1.74 7.43 1.75 3.22 0.01 5.55-0.64 7.5-2.08 1.55-1.16 3.72-3.64 4.82-5.5 1.74-2.95 2.04-5.55 2.31-19.65 0.29-15.14 0.19-16.25-1.5-16.22-1 0.01-4.46 1.47-7.7 3.25-3.24 1.77-7.69 4.79-9.89 6.72zm-328.72-129.28c2.48 0.3 5.85 1.21 7.5 2.03 1.65 0.81 4.06 2.44 5.35 3.62 1.29 1.17 3.14 3.7 4.11 5.63 0.97 1.92 2.07 5.07 2.43 7 0.37 1.92 0.18 5.75-0.41 8.5-0.6 2.75-2.16 6.57-3.47 8.5-1.32 1.92-4.33 4.58-6.7 5.91-2.48 1.38-6.65 2.6-9.81 2.88-4.24 0.37-6.65-0.02-10.5-1.72-2.75-1.2-5.85-2.95-6.89-3.88-1.04-0.93-2.95-3.94-4.24-6.69-1.47-3.12-2.36-6.88-2.37-10-0.02-3.3 0.8-6.7 2.42-10 1.43-2.94 4.01-6.12 6.26-7.71 2.1-1.5 5.62-3.14 7.82-3.66 2.2-0.52 6.03-0.71 8.5-0.41zm94.5 52.39c3.85-0.04 10.15 0.59 14 1.4 3.85 0.81 9.7 2.79 13 4.39 3.3 1.6 8.14 4.97 10.75 7.5 2.68 2.6 6.04 7.32 7.71 10.85 1.62 3.44 3.42 9.17 3.99 12.75 0.57 3.57 1.04 20.11 1.04 36.75 0.01 21.03 0.39 31.67 1.26 34.91 0.74 2.75 2.27 5.44 3.75 6.57 1.61 1.23 3.75 1.81 6 1.64 1.93-0.15 4.06 0.04 4.75 0.43 0.69 0.38 1.25 2.27 1.25 4.2 0 2.22-0.86 4.51-2.33 6.25-1.29 1.51-4.33 3.58-6.75 4.59-2.43 1.02-7.57 2.09-11.42 2.38-3.85 0.29-9.47 0.03-12.5-0.59-3.02-0.61-7.52-2.42-10-4.02-2.47-1.61-5.4-4.54-6.5-6.52-1.1-1.98-2-3.61-2-3.61 0-0.01-2.47 2.38-5.5 5.31-3.5 3.38-7.32 5.97-10.5 7.1-2.75 0.98-7.7 2.13-11 2.55-3.3 0.43-9.15 0.38-13-0.11-3.85-0.49-9.66-2.11-12.91-3.61-3.7-1.7-7.37-4.41-9.8-7.22-2.14-2.48-4.81-6.98-5.94-10-1.64-4.43-1.97-7.25-1.67-14.5 0.29-7.15 0.91-10.13 3-14.5 1.45-3.03 4.61-7.53 7.03-10 2.42-2.48 7.53-6.15 11.35-8.18 3.82-2.02 13.47-5.89 21.44-8.6 7.98-2.72 15.96-5.67 17.75-6.58 1.79-0.9 3.7-2.54 4.25-3.64 0.55-1.1 0.98-5.26 0.96-9.25-0.03-3.99-0.71-9.05-1.51-11.25-0.81-2.2-2.25-4.85-3.21-5.89-0.96-1.04-3.54-2.72-5.74-3.73-2.2-1.01-5.57-1.84-7.5-1.84-1.92 0-5.41 0.89-7.75 1.98-2.34 1.09-4.75 2.99-5.37 4.23-0.98 1.96-0.76 2.51 1.64 4.25 1.52 1.1 3.37 3.24 4.12 4.75 0.75 1.51 1.36 4.44 1.36 6.5 0.01 2.06-0.78 5.26-1.75 7.11-0.96 1.85-3.32 4.2-5.25 5.24-1.92 1.03-5.3 2.15-7.5 2.48-2.2 0.33-5.8 0.13-8-0.44-2.2-0.57-5.32-2.07-6.93-3.34-1.61-1.26-3.74-4.1-4.73-6.3-0.99-2.2-1.81-6.25-1.83-9-0.02-2.75 0.75-7.25 1.7-10 1.07-3.07 3.49-6.77 6.27-9.57 2.48-2.52 7.45-5.98 11.02-7.7 3.58-1.72 10.1-3.79 14.5-4.59 4.4-0.8 11.15-1.49 15-1.53zm-7 77.13c-2.2 1.87-4.97 5.4-6.15 7.84-1.17 2.43-2.45 6.45-2.83 8.92-0.47 3.1-0.21 5.74 0.85 8.5 0.84 2.2 2.57 4.74 3.83 5.64 1.27 0.9 3.88 1.96 5.8 2.35 2.51 0.52 4.78 0.18 8-1.19 3.5-1.48 4.99-2.89 6.74-6.35 2.02-4.04 2.23-5.91 2.25-20.2 0-8.66-0.33-15.73-0.74-15.7-0.41 0.03-3.67 1.56-7.25 3.41-3.57 1.85-8.3 4.9-10.5 6.78zm128.25-77.19c2.56-0.04 3.46 0.48 4.25 2.45 0.55 1.37 1 4.97 1 8 0 3.02 0.45 5.5 1 5.5 0.55 0 1-0.45 1-1 0-0.55 1.69-2.86 3.75-5.12 2.06-2.27 6-5.26 8.75-6.64 2.94-1.48 7.47-2.73 11-3.03 3.3-0.28 8.25 0.04 11 0.7 2.75 0.67 6.72 2.42 8.83 3.9 2.42 1.69 4.82 4.73 6.5 8.19 2.24 4.63 2.66 6.85 2.66 14 0.01 7.09-0.4 9.32-2.49 13.44-1.55 3.06-4 5.92-6.43 7.5-3.21 2.1-5.13 2.56-10.57 2.56-5.7 0-7.18-0.39-10.33-2.75-2.3-1.72-4.09-4.15-4.8-6.5-0.62-2.06-0.85-5.55-0.52-7.75 0.34-2.2 1.51-4.9 2.61-6 1.1-1.1 2.01-3.01 2.02-4.25q0.02-2.25-2.23-2.85c-1.24-0.34-3.71-0.34-5.5 0-1.79 0.33-4.82 2.17-6.75 4.1-2.44 2.44-4.11 5.54-5.52 10.25-1.12 3.71-2.53 11.93-3.14 18.25-0.63 6.56-0.88 19.24-0.56 29.5 0.32 10.67 1.18 20.85 2.11 25 0.86 3.85 2.59 8.32 3.84 9.93 1.25 1.61 3.73 3.52 5.52 4.25 2.8 1.14 3.22 1.75 3 4.47-0.17 2.12-1.18 3.84-3.08 5.25-2.37 1.76-4.21 2.09-11.5 2.06-6.78-0.04-9.71-0.53-18.17-4.46l-7.5 2.5c-4.12 1.37-9.41 2.5-11.75 2.49-2.34 0-5.94-0.45-8-1-2.06-0.54-4.42-1.67-5.25-2.49-0.82-0.82-1.5-2.85-1.5-4.5 0-2.33 0.72-3.42 3.25-4.87 1.8-1.04 4.24-3.82 5.48-6.25 1.22-2.41 2.79-7.08 3.48-10.38 0.84-4.04 1.26-15.97 1.27-36.5 0.01-21.88-0.37-32.2-1.33-36.5-1.15-5.17-2.09-6.73-6.75-11.25-4.38-4.26-5.31-5.72-4.9-7.75 0.28-1.42 1.69-3.09 3.25-3.86 1.51-0.74 4.1-1.62 5.75-1.94 1.65-0.32 5.93 0 16 2l9-4.3c4.95-2.37 10.46-4.32 12.25-4.35zm-201.25 2.95c1.1-0.05 2.58 0.49 3.28 1.21 1.04 1.04 1.07 4.86 0.14 19.79-0.68 10.87-0.95 31.08-0.65 49 0.36 21.87 0.9 32.06 1.93 36 0.79 3.02 1.97 6.51 2.62 7.75 0.65 1.24 2.87 2.98 4.93 3.86 2.06 0.89 4.08 2.13 4.48 2.75 0.41 0.63 0.75 2.15 0.75 3.39 0.01 1.32-1.12 3.08-2.73 4.25-1.51 1.1-4.77 2.26-7.25 2.57-2.47 0.32-7.42 0.05-11-0.59-3.57-0.64-7.74-1.8-9.25-2.58-2.45-1.24-3.39-1.17-8.5 0.66-3.81 1.37-8.11 2.05-12.75 2.03-4.65-0.03-8.18-0.64-10.5-1.82-2.64-1.34-3.58-2.5-3.83-4.77-0.28-2.54 0.16-3.23 2.86-4.5 1.76-0.82 4.03-2.85 5.05-4.5 1.02-1.65 2.63-6.38 3.57-10.5 1.41-6.18 1.7-12.59 1.66-36.5-0.05-24.86-0.32-29.93-1.88-35.5-1.5-5.39-2.72-7.4-7.12-11.75-4.28-4.23-5.21-5.73-4.81-7.75q0.5-2.5 4-4c1.93-0.83 5.98-1.5 9-1.5 3.03 0 7.53 0.45 10 1 2.86 0.63 4.96 0.65 5.75 0.05 0.69-0.53 5.08-2.53 9.75-4.46 4.68-1.93 9.4-3.54 10.5-3.59z"/>
	<path id="Path 0" fill-rule="evenodd" class="s1" d="m374.75 266.11c0.92-0.08 1.25 2.3 1.25 17.89l2.25-1.51c1.24-0.83 3.49-1.5 5-1.5 1.73 0.01 3.31 0.84 4.26 2.26 0.97 1.46 1.5 4.63 1.5 9-0.01 5.62 0.28 6.81 1.74 7.13 0.96 0.22-0.95 0.43-4.25 0.47-4.38 0.07-5.53-0.17-4.25-0.88 1.28-0.71 1.75-2.24 1.77-5.72 0.01-2.61-0.56-5.6-1.25-6.63-0.95-1.4-1.97-1.72-4.02-1.25-2.62 0.6-2.75 0.9-2.75 6.63 0 4.68 0.39 6.21 1.75 6.97 1.29 0.71 0.16 0.97-4.25 0.97-4.41 0-5.54-0.26-4.25-0.97 1.54-0.85 1.75-2.67 1.75-14.97 0-11.78-0.24-14-1.5-14-0.82 0-1.51-0.34-1.52-0.75 0-0.41 1.23-1.26 2.75-1.89 1.53-0.63 3.33-1.2 4.02-1.25zm214.75 0.15c4.25 0.2 5 0.54 5 2.24q0 2-2.25 2.25c-1.29 0.14-2.46-0.39-2.75-1.25-0.27-0.83-1.4-1.5-2.5-1.5-1.38 0-2.31 1.01-3.02 3.25-0.56 1.79-1.01 4.94-1 7 0.02 3.33 0.3 3.75 2.52 3.75 1.56 0 2.5 0.57 2.5 1.5 0 1.07-0.72 1.36-2.5 1-2.48-0.5-2.5-0.43-2.5 6.5 0 6.32 0.22 7.09 2.25 7.94 1.73 0.72 0.75 0.94-4.25 0.97-4.72 0.02-6.02-0.24-4.75-0.94 1.39-0.77 1.75-2.32 1.75-7.47 0-5.19-0.35-6.68-1.75-7.39-1.67-0.84-1.67-0.96 0-2.5 0.96-0.88 1.75-2.96 1.75-4.61 0-1.65 0.74-4.33 1.65-5.95 0.9-1.62 2.37-3.42 3.25-3.99 0.88-0.58 3.85-0.94 6.6-0.8zm-249.81 3.21l6.4 0.54c3.53 0.29 9.56 0.26 13.41-0.07 3.85-0.34 7.14-0.57 7.31-0.52 0.17 0.04-0.01 2.56-1.11 11.08l-1.35-3.25c-0.74-1.79-2.47-3.7-3.85-4.25-1.37-0.55-2.95-0.77-3.5-0.5-0.59 0.29-1 5.67-1 13 0 12.02 0.09 12.54 2.25 13.44 1.68 0.7 0.35 0.93-5.25 0.93-5.6 0-6.93-0.23-5.25-0.93 2.17-0.91 2.25-1.4 2.25-13.94 0-9.71-0.32-13.01-1.25-13.03-0.69-0.02-2.49 0.88-4 2-1.51 1.11-2.98 2.93-3.25 4.03-0.27 1.1-0.84 1.82-1.25 1.6-0.41-0.23-0.71-2.6-0.66-5.27zm63.47 11.51c1.84 0 4.12 0.56 5.08 1.25 0.95 0.7 1.85 2.4 2 3.77 0.25 2.39 0 2.51-5.48 2.75-5.4 0.24-5.75 0.4-5.75 2.75 0 1.38 1.01 3.47 2.25 4.64 1.85 1.77 2.94 2.03 6.25 1.46 3.84-0.66 3.93-0.62 2.21 1.11-1.25 1.25-3.31 1.79-6.84 1.79-4.25 0-5.43-0.43-7.46-2.75-1.66-1.89-2.38-3.87-2.31-6.35 0.07-2.64 0.98-4.51 3.4-7 2.44-2.52 4.16-3.4 6.65-3.42zm-4.35 5.22c0.11 0.44 1.55 0.8 3.2 0.8 2.22 0 2.87-0.39 2.5-1.5-0.28-0.82-0.5-1.72-0.5-2 0-0.27-0.59-0.5-1.3-0.5-0.72 0-1.93 0.54-2.7 1.2-0.77 0.66-1.31 1.56-1.2 2zm71.2-5.17c1.92 0.01 4.46 0.79 5.63 1.74 1.17 0.95 2.68 2.86 3.36 4.23 0.69 1.41 0.96 3.92 0.62 5.75-0.35 1.87-1.89 4.32-3.61 5.75-1.74 1.45-4.27 2.5-6 2.5-1.65 0-4.13-0.45-5.5-1-1.38-0.55-3.23-2.46-4.12-4.25-1.09-2.18-1.41-4.48-1-7 0.46-2.81 1.43-4.25 3.87-5.74 1.78-1.1 4.82-1.99 6.75-1.98zm-4.79 9.84c0.39 2.55 1.52 5.43 2.5 6.41 0.98 0.98 2.35 1.77 3.04 1.75 0.68-0.01 1.75-1.04 2.38-2.28 0.64-1.28 0.86-3.97 0.51-6.25-0.34-2.2-1.41-4.8-2.38-5.78-0.97-0.98-2.28-1.77-2.9-1.75-0.63 0.02-1.75 0.76-2.5 1.65-0.98 1.16-1.16 2.93-0.65 6.25zm23.04-9.83c0.41-0.02 0.73 3 0.7 6.71-0.03 4.92 0.38 7.09 1.5 8 0.85 0.69 2.33 1.13 3.3 0.99 1.39-0.21 1.8-1.41 2-6 0.21-4.88-0.02-5.74-1.5-5.78-1.1-0.03-0.45-0.76 1.75-1.96 1.92-1.05 3.83-1.93 4.25-1.96 0.41-0.02 0.75 3 0.76 6.71 0.01 3.71 0.35 7.25 0.75 7.85 0.41 0.61 1.41 1.33 2.24 1.61 0.96 0.33 0.07 1.1-2.5 2.17-3.15 1.3-4.15 1.39-4.69 0.39-0.55-1.02-1.19-1.02-3.25-0.02-1.41 0.69-3.46 1.25-4.56 1.25-1.1 0-2.68-1.01-3.51-2.25-0.87-1.3-1.51-4.47-1.5-7.5 0-4.09-0.38-5.39-1.74-5.9-1.44-0.53-1.12-0.98 1.75-2.46 1.92-0.99 3.83-1.82 4.25-1.85zm24.5-0.05c1.23 0.01 2.92 0.24 3.75 0.51 0.82 0.28 1.5 1.63 1.5 3 0 1.38-0.23 2.5-0.5 2.5-0.28 0-1.4-0.9-2.5-2-1.1-1.1-2.68-2-3.5-2-0.83 0-1.52 0.56-1.55 1.25-0.02 0.69 1.78 2.49 4 4 2.23 1.51 4.31 3.76 4.64 5 0.37 1.43-0.12 3.16-1.35 4.75-1.07 1.38-3.02 2.65-4.34 2.83-1.32 0.17-3.42 0.06-4.65-0.25-1.75-0.45-2.26-1.31-2.32-7.08l2.53 2.75c1.4 1.51 3.21 2.75 4.04 2.75 0.83 0 1.5-0.89 1.5-2 0-1.25-1.5-2.94-4-4.5-3.1-1.94-4.03-3.16-4.14-5.44-0.09-2.09 0.56-3.4 2.25-4.51 1.31-0.86 3.4-1.56 4.64-1.56zm18.4-0.01c1.84 0 4.12 0.56 5.08 1.25 0.95 0.7 1.85 2.4 2 3.77 0.25 2.39 0 2.51-5.48 2.75-5.4 0.24-5.75 0.4-5.75 2.75 0 1.38 1.01 3.47 2.25 4.64 1.85 1.77 2.94 2.03 6.25 1.46 3.84-0.66 3.93-0.62 2.21 1.11-1.25 1.25-3.31 1.79-6.84 1.79-4.25 0-5.43-0.43-7.46-2.75-1.66-1.89-2.38-3.87-2.31-6.35 0.07-2.64 0.98-4.51 3.4-7 2.44-2.52 4.16-3.4 6.65-3.42zm-4.35 5.22c0.11 0.44 1.55 0.8 3.2 0.8 2.22 0 2.87-0.39 2.5-1.5-0.28-0.82-0.5-1.72-0.5-2 0-0.27-0.59-0.5-1.3-0.5-0.72 0-1.93 0.54-2.7 1.2-0.77 0.66-1.31 1.56-1.2 2zm36.2-5.17c1.92 0.01 4.46 0.79 5.63 1.74 1.17 0.95 2.68 2.86 3.36 4.23 0.69 1.41 0.96 3.92 0.62 5.75-0.35 1.87-1.89 4.32-3.61 5.75-1.74 1.45-4.27 2.5-6 2.5-1.65 0-4.13-0.45-5.5-1-1.38-0.55-3.23-2.46-4.12-4.25-1.09-2.18-1.41-4.48-1-7 0.46-2.81 1.43-4.25 3.87-5.74 1.78-1.1 4.82-1.99 6.75-1.98zm-4.79 9.84c0.39 2.55 1.52 5.43 2.5 6.41 0.98 0.98 2.35 1.77 3.04 1.75 0.68-0.01 1.75-1.04 2.38-2.28 0.64-1.28 0.86-3.97 0.51-6.25-0.34-2.2-1.41-4.8-2.38-5.78-0.97-0.98-2.28-1.77-2.9-1.75-0.63 0.02-1.75 0.76-2.5 1.65-0.98 1.16-1.16 2.93-0.65 6.25zm77.79-9.84c1.92 0.01 4.46 0.79 5.63 1.74 1.17 0.95 2.68 2.86 3.36 4.23 0.69 1.41 0.96 3.92 0.62 5.75-0.35 1.87-1.89 4.32-3.61 5.75-1.74 1.45-4.27 2.5-6 2.5-1.65 0-4.13-0.45-5.5-1-1.38-0.55-3.23-2.46-4.12-4.25-1.09-2.18-1.41-4.48-1-7 0.46-2.81 1.43-4.25 3.87-5.74 1.78-1.1 4.82-1.99 6.75-1.98zm-4.79 9.84c0.39 2.55 1.52 5.43 2.5 6.41 0.98 0.98 2.35 1.77 3.04 1.75 0.68-0.01 1.75-1.04 2.38-2.28 0.64-1.28 0.86-3.97 0.51-6.25-0.34-2.2-1.41-4.8-2.38-5.78-0.97-0.98-2.28-1.77-2.9-1.75-0.63 0.02-1.75 0.76-2.5 1.65-0.98 1.16-1.16 2.93-0.65 6.25zm47.94-9.89c1.84 0 4.12 0.56 5.08 1.25 0.95 0.7 1.85 2.4 2 3.77 0.25 2.39 0 2.51-5.48 2.75-5.4 0.24-5.75 0.4-5.75 2.75 0 1.38 1.01 3.47 2.25 4.64 1.85 1.77 2.94 2.03 6.25 1.46 3.84-0.66 3.93-0.62 2.21 1.11-1.25 1.25-3.31 1.79-6.84 1.79-4.25 0-5.43-0.43-7.46-2.75-1.66-1.89-2.38-3.87-2.31-6.35 0.07-2.64 0.98-4.51 3.4-7 2.44-2.52 4.16-3.4 6.65-3.42zm-4.35 5.22c0.11 0.44 1.55 0.8 3.2 0.8 2.22 0 2.87-0.39 2.5-1.5-0.28-0.82-0.5-1.72-0.5-2 0-0.27-0.59-0.5-1.3-0.5-0.72 0-1.93 0.54-2.7 1.2-0.77 0.66-1.31 1.56-1.2 2zm-23.3-4.1c4.17-0.05 5.54 0.22 4.5 0.89-1.3 0.82-1.16 1.58 3.5 10.14l1.27-3.31c0.7-1.83 1.27-4.11 1.25-5.07-0.01-0.96-0.81-1.92-1.77-2.13-0.97-0.21 0.72-0.42 3.75-0.47 4.05-0.07 5.04 0.17 3.75 0.88-0.97 0.54-3.55 4.8-5.75 9.47-2.2 4.68-4.23 8.5-4.5 8.5-0.28 0-2.53-4.05-5-9-2.48-4.95-5.07-9.19-5.75-9.42-0.69-0.23 1.45-0.45 4.75-0.48zm-221.64-11.98c3.85-0.01 7.03 0.41 7.07 0.93 0.03 0.52-0.83 0.95-1.93 0.95-1.78 0-2 0.67-2 12h14v-5.5c0-4.66-0.31-5.57-2-6-1.1-0.27-2.01-0.93-2.02-1.45-0.01-0.52 3.13-0.94 6.98-0.93 3.85 0.01 7.01 0.44 7.02 0.95 0.01 0.51-0.88 0.93-1.98 0.93-1.9 0-2 0.67-2 13 0 12.54 0.08 13.04 2.25 13.94 1.67 0.7 0.34 0.93-5.25 0.93-5.6 0-6.93-0.23-5.25-0.93 1.98-0.83 2.25-1.66 2.25-12.94h-14v6.5c0 5.97 0.18 6.53 2.25 6.87 1.23 0.2-1.13 0.39-5.25 0.43-5.55 0.06-6.92-0.17-5.25-0.86 2.16-0.9 2.25-1.42 2.25-13.44 0-11.66-0.14-12.53-2-13-1.1-0.27-2.04-0.92-2.07-1.43-0.04-0.51 3.08-0.94 6.93-0.95zm176.51 0.01c3.58 0 6.53 0.42 6.56 0.93 0.04 0.52-0.83 1.17-1.93 1.44-1.89 0.47-1.99 1.23-1.5 25l3.75 0.25c3.12 0.21 4.33-0.33 10.75-6.75v9l-12.25-0.11c-6.74-0.07-11.47-0.29-10.5-0.5 1.56-0.35 1.75-1.84 1.75-13.89 0-11.33-0.24-13.5-1.5-13.5-0.83 0-1.53-0.42-1.57-0.94-0.03-0.51 2.87-0.93 6.44-0.93z"/>
	<g id="Layer 2">
		<path id="Path 0" class="s2" d="m406 23c-1.1 1.1-2.27 3.46-2.61 5.25-0.41 2.2 0.42 6.8 2.59 14.25 1.76 6.05 3.5 11.34 3.86 11.76 0.36 0.41 1.67-2.51 2.9-6.5 1.24-3.99 2.7-9.62 3.25-12.51 0.56-2.89 0.72-6.49 0.38-8-0.35-1.51-1.37-3.55-2.25-4.53-0.89-0.98-2.63-1.77-3.87-1.75-1.24 0.02-3.15 0.93-4.25 2.03zm93.5 9c-4.4 1.01-12.73 3.49-18.5 5.52-5.77 2.02-19.5 7.86-30.5 12.97-11 5.11-22.7 10.42-26 11.79-3.3 1.38-10.05 3.93-15 5.66-4.95 1.74-13.05 3.81-18 4.6-4.95 0.8-13.73 1.45-19.5 1.44-5.77-0.01-13.65-0.69-17.5-1.52-3.85-0.83-8.8-2.56-11-3.84-2.2-1.28-5.47-4.09-7.26-6.23-1.79-2.14-3.54-5.24-3.88-6.89-0.34-1.65-0.31-3.9 0.08-5 0.64-1.86 0.89-1.76 3.38 1.27 1.84 2.26 3.84 3.46 6.39 3.86 2.45 0.39 4.73 0.04 6.75-1.02 1.67-0.89 3.49-2.51 4.04-3.61 0.55-1.1 1-3.8 1-6 0-2.2-0.45-4.9-1-6-0.55-1.1-2.46-2.73-4.25-3.63-2.29-1.14-4.72-1.46-8.25-1.07-2.75 0.3-6.13 1.4-7.5 2.44-1.37 1.05-3.29 3.45-4.25 5.33-1.07 2.11-1.76 5.74-1.77 9.43-0.02 3.3 0.66 7.69 1.5 9.75 0.83 2.06 3.21 5.35 5.27 7.31 2.06 1.96 6.23 4.72 9.25 6.13 3.02 1.41 8.65 3.24 12.5 4.07 4.36 0.95 12.09 1.51 20.5 1.49 11.08-0.02 16.19-0.58 28.5-3.1 8.25-1.69 19.73-4.64 25.5-6.54 5.77-1.9 20.63-7.35 33-12.1 12.38-4.76 27-9.98 32.5-11.6 5.5-1.63 13.82-3.48 18.5-4.12 6.53-0.89 10.01-0.88 15 0.04 3.58 0.66 8.41 2.32 10.75 3.68 2.34 1.37 4.92 3.62 5.75 4.99 0.83 1.38 1.27 3.17 1 4-0.38 1.14-0.98 1.26-2.5 0.5-1.1-0.55-3.58-1-5.5-1-2.27 0-4.56 0.88-6.5 2.5-1.72 1.44-3.26 3.88-3.61 5.75-0.34 1.79-0.11 4.94 0.5 7 0.73 2.47 2.22 4.43 4.36 5.75 2.19 1.34 5.05 2 8.75 2.02 4.09 0.03 6.4-0.55 9-2.26 1.92-1.27 4.31-3.87 5.31-5.78 1.43-2.75 1.73-5.16 1.42-11.48-0.26-5.45-1.03-9.28-2.42-12-1.12-2.2-3.56-5.29-5.42-6.87-1.87-1.58-5.08-3.72-7.14-4.75-2.06-1.04-6.56-2.55-10-3.37-3.44-0.81-10.52-1.45-15.75-1.41-5.38 0.04-12.97 0.86-17.5 1.9z"/>
		<path id="Path 1" fill-rule="evenodd" class="s3" d="m405.45 22.5c-1.35 1.38-2.71 4.19-3.03 6.25-0.31 2.06-0.3 3.98 0.03 4.25 0.33 0.27 0.59-0.51 0.58-1.75-0.02-1.24 0.65-3.82 1.47-5.75 1.08-2.53 2.4-3.75 4.75-4.41 2.56-0.72 2.76-0.93 0.95-1-1.26-0.05-3.4 1.04-4.75 2.41zm8.7 0c0.9 1.1 1.86 2.9 2.13 4l0.49 2c0.23-3.1-0.73-4.9-1.99-6l-2.28-2zm2.3 10c-0.34 2.2-1.45 7.15-2.47 11-1.01 3.85-2.28 8.13-2.81 9.5l-0.96 2.5c-1.71-4.26-2.19-6.06-2.18-6.75 0.02-0.69-0.21-1.02-0.51-0.75-0.3 0.27 0.03 2.64 0.72 5.26 0.7 2.62 1.49 4.77 1.76 4.77 0.28 0.01 1.74-3.93 3.26-8.76 1.51-4.82 3.17-11.21 3.7-14.18 0.52-2.98 0.76-5.68 0.53-6-0.23-0.33-0.7 1.21-1.04 3.41zm96.55-2.76c3.03 0.2 7.53 0.2 10-0.01 2.48-0.2 0-0.37-5.5-0.36-5.5 0-7.52 0.17-4.5 0.37zm-15 1.41c-2.47 0.51-4.27 1.13-4 1.38 0.28 0.24 3.43-0.18 7-0.94 3.58-0.77 5.38-1.39 4-1.38-1.37 0-4.52 0.43-7 0.94zm30-0.81c0.28 0.22 2.3 0.67 4.5 1 2.79 0.43 3.4 0.34 2-0.29-1.1-0.5-3.12-0.95-4.5-1.01-1.37-0.05-2.27 0.08-2 0.3zm-192.93 4.02c-1.88 0.7-4.13 2.37-4.99 3.71l-1.56 2.43c3.86-3.38 6.22-4.85 7.73-5.43 1.52-0.59 4.33-1.07 6.25-1.07 1.93 0 4.85 0.67 6.5 1.5 1.65 0.83 3.48 2.29 4.06 3.25q1.05 1.73 0.67 0.25c-0.21-0.83-1.92-2.53-3.8-3.78-2.21-1.47-4.84-2.25-7.43-2.21-2.2 0.04-5.54 0.64-7.43 1.35zm144.43 2.68c-6.05 2.16-15.38 6.08-20.73 8.7-5.35 2.62-9.63 4.88-9.5 5.03 0.13 0.14 4.51-1.78 9.73-4.28 5.23-2.5 15.13-6.53 22-8.96 6.88-2.43 11.83-4.42 11-4.42-0.82-0.01-6.45 1.76-12.5 3.93zm60.5-3.7c0.28 0.21 1.63 0.92 3 1.58 2.39 1.14 2.41 1.12 0.5-0.38-1.1-0.87-2.45-1.58-3-1.58-0.55-0.01-0.77 0.16-0.5 0.38zm-136.87 2.16c0.02 1.1 0.86 4.25 1.87 7 1.02 2.75 1.88 4.55 1.91 4 0.04-0.55-0.81-3.7-1.87-7-1.06-3.3-1.92-5.1-1.91-4zm143.37 1.14c0.55 0.48 2.58 2.22 4.5 3.87l3.5 2.99c-3.87-4.4-5.9-6.15-7-6.71-1.1-0.57-1.55-0.64-1-0.15zm-219.42 6.93c-0.48 1.41-0.91 5.34-0.94 8.75-0.04 3.9 0.5 7.1 1.47 8.68 0.92 1.51 1.23 1.7 0.77 0.5-0.42-1.1-0.93-4.92-1.13-8.5-0.2-3.58 0.05-7.74 0.55-9.25 0.51-1.51 0.75-2.75 0.54-2.75-0.21 0-0.77 1.15-1.26 2.57zm27.11 1.43c-0.1 2.48-0.77 5.45-1.5 6.61-0.74 1.16-2.65 2.67-4.26 3.34-1.65 0.7-4.56 0.98-6.68 0.64-2.68-0.42-4.32-1.45-5.75-3.59-1.1-1.65-2.46-2.72-3.03-2.37-0.58 0.35-0.81 2.43-0.52 4.75 0.28 2.27 0.99 4.57 1.59 5.12 0.78 0.72 0.79 0.23 0.03-1.75-0.59-1.51-1.06-3.99-1.06-5.5l0.02-2.75c4.23 5.53 6.09 6.68 8.72 7.12 2.52 0.41 4.82 0.08 7-1 1.79-0.89 3.94-2.63 4.77-3.87 0.98-1.44 1.4-3.87 1.18-6.75l-0.35-4.5zm155.32-1.59c-3.85 0.74-9.7 2.13-13 3.09-3.3 0.95-11.51 3.71-18.25 6.12-6.74 2.41-12.14 4.6-12 4.86 0.14 0.27 5.76-1.53 12.5-4 6.74-2.46 16.64-5.66 22-7.1 7.31-1.97 12.38-2.66 20.25-2.75 9.54-0.12 11.03 0.12 16.25 2.62 3.67 1.76 6.47 3.92 7.75 6 1.09 1.79 2.01 2.8 2.03 2.25 0.02-0.55-0.88-2.24-2-3.75-1.11-1.51-4.39-3.89-7.28-5.29-3.85-1.87-7.38-2.66-13.25-2.97-4.54-0.25-11.03 0.15-15 0.92zm45.58 2.59c0.66 1.38 1.37 2.73 1.58 3 0.22 0.27 0.39 0.05 0.38-0.5 0-0.55-0.71-1.9-1.58-3-1.5-1.91-1.52-1.88-0.38 0.5zm2.63 12c0.33 6.82 0.05 9.19-1.4 11.98-1 1.91-3.38 4.51-5.31 5.78-2.55 1.67-4.92 2.29-8.75 2.27-2.89-0.02-6.6-0.7-8.25-1.53-1.65-0.83-3.66-2.74-4.46-4.25-0.8-1.51-1.48-2.3-1.51-1.75-0.02 0.55 0.63 2.01 1.46 3.25 0.83 1.24 2.86 2.92 4.51 3.75 1.65 0.83 5.36 1.51 8.25 1.53 3.83 0.02 6.17-0.59 8.66-2.25 1.87-1.25 4.35-3.55 5.5-5.11 1.56-2.1 2.17-4.65 2.42-10 0.18-3.94-0.09-8.29-0.6-9.67-0.65-1.75-0.8 0.05-0.52 6zm-116.71-4c-1.92 1.05-3.05 1.92-2.5 1.92 0.55 0 2.58-0.87 4.5-1.92 1.93-1.05 3.05-1.92 2.5-1.92-0.55 0-2.57 0.87-4.5 1.92zm95 0.66c0.83 0.27 1.69 0.23 1.92-0.08 0.23-0.32-0.45-0.54-1.5-0.5-1.38 0.06-1.49 0.22-0.42 0.58zm5 0.25c1.38 0.4 3.18 1.07 4 1.48 0.83 0.42 0.6 0.04-0.5-0.83-1.1-0.88-2.9-1.55-4-1.49-1.63 0.08-1.54 0.24 0.5 0.84zm-10.34 2.84c-1.89 1.92-2.84 4.1-3.15 7.25l-0.45 4.5c1.52-6.98 3.16-10.24 4.63-11.75 1.46-1.51 2.44-2.75 2.17-2.75-0.27 0-1.71 1.24-3.2 2.75zm-100.16 0.82c-1.65 0.79-5.47 2.57-8.5 3.95-3.02 1.38-4.37 2.21-3 1.85 1.38-0.36 5.65-2.13 9.5-3.93 3.85-1.8 6.55-3.28 6-3.29-0.55-0.01-2.35 0.63-4 1.42zm19.78 4.76c-7.27 2.84-13.12 5.3-13 5.46 0.12 0.16 6.3-2 13.72-4.8 7.43-2.81 13.69-5.3 13.92-5.54 0.23-0.25 0-0.41-0.5-0.37-0.51 0.04-6.87 2.41-14.14 5.25zm-113.28 0.05c1.38 1.55 4.3 3.88 6.5 5.19 2.2 1.31 7.15 3.06 11 3.89 4.37 0.94 11.52 1.45 19 1.35l12-0.15c-22.47-1.03-31.02-1.9-33.5-2.6-2.47-0.7-5.74-1.9-7.25-2.66-1.51-0.77-4.44-2.85-6.5-4.61-3.34-2.87-3.48-2.91-1.25-0.41zm-6.68 2.62c0.86 1.38 2.82 3.43 4.37 4.56 1.55 1.14 3.49 2.41 4.31 2.83 0.83 0.42 0.15-0.28-1.5-1.56-1.65-1.27-4.29-3.67-5.87-5.32-2.42-2.55-2.62-2.63-1.31-0.51zm80.18 0.64c-2.2 0.83-7.15 2.35-11 3.38-3.85 1.03-5.99 1.89-4.75 1.92 1.24 0.04 6.53-1.29 11.75-2.94 5.23-1.65 9.5-3.22 9.5-3.5 0-0.28-0.34-0.47-0.75-0.43-0.41 0.04-2.55 0.75-4.75 1.57zm16.5 4.89c-3.57 1.26-6.05 2.34-5.5 2.4 0.55 0.05 3.93-0.85 7.5-2.01 3.58-1.17 6.69-2.3 6.92-2.52 0.23-0.22-0.22-0.35-1-0.28-0.78 0.07-4.34 1.16-7.92 2.41zm-39.5 1.16c1.1 0.25 2.68 0.25 3.5 0 0.83-0.25-0.07-0.46-2-0.46-1.92 0-2.6 0.21-1.5 0.46zm17 4.38c-7.15 1.53-11.99 2.82-10.75 2.86 1.24 0.04 7.54-1.06 14-2.45 6.46-1.39 11.94-2.74 12.17-3 0.23-0.26-0.22-0.41-1-0.33-0.78 0.08-7.27 1.39-14.42 2.92zm-60.5-1.07c0.83 0.53 1.95 0.97 2.5 0.97 0.55 0 0.33-0.44-0.5-0.97-0.82-0.53-1.95-0.97-2.5-0.97-0.55 0-0.32 0.44 0.5 0.97zm9 3.04c1.38 0.58 5.88 1.24 10 1.46l7.5 0.4c-10.07-1.29-14.57-1.94-16.5-2.28-3.09-0.56-3.21-0.51-1 0.42zm30 1.68c1.93 0.22 4.63 0.22 6-0.01 1.38-0.22-0.2-0.41-3.5-0.4-3.3 0.01-4.42 0.19-2.5 0.41zm-9.19 0.99c1.28 0.24 3.08 0.23 4-0.02 0.93-0.25-0.11-0.45-2.31-0.44-2.2 0.01-2.96 0.22-1.69 0.46z"/>
		<path id="Path 2" class="s2" d="m429.95 36.75c-1.77 1.51-4.25 4.55-5.5 6.75-1.25 2.2-2.76 5.69-3.36 7.75l-1.09 3.75c14.34-9.92 18.91-13.86 19.4-15.15 0.5-1.29 0.61-3.14 0.25-4.1-0.41-1.12-1.7-1.75-3.57-1.75-1.73 0-4.22 1.11-6.13 2.75zm-48.6 2c-0.32 0.96-0.31 2.76 0.03 4 0.35 1.29 2.86 3.59 5.87 5.38 2.89 1.72 7.02 4.53 9.18 6.25l3.93 3.12c-1.05-4.26-2.37-7.61-3.61-10.2-1.24-2.58-3.49-5.96-5-7.5-1.98-2.02-3.74-2.8-6.27-2.8-2.47 0-3.71 0.53-4.13 1.75z"/>
		<path id="Path 3" fill-rule="evenodd" class="s3" d="m435.79 32.98c1.49-0.01 3.28 0.56 3.98 1.25 0.69 0.7 1.26 2.28 1.25 3.52-0.01 1.24-0.36 2.43-0.77 2.65-0.41 0.23-0.75-1.01-0.75-2.75 0-2.86-0.31-3.18-3.45-3.47-3.03-0.28-4.02 0.28-7.94 4.5-2.47 2.65-4.01 3.92-3.42 2.82 0.58-1.1 2.71-3.46 4.72-5.25 2.2-1.95 4.75-3.26 6.38-3.27zm-50.09 3.02c1.81 0 3.48 0.34 3.7 0.75 0.22 0.41-1.35 0.64-3.5 0.5-2.94-0.19-4.06 0.18-4.56 1.5-0.37 0.96-0.16 3.1 0.47 4.75 1.04 2.77 1.01 2.84-0.36 1-0.81-1.1-1.57-2.92-1.67-4.05-0.1-1.13 0.45-2.59 1.22-3.25 0.77-0.66 2.88-1.2 4.7-1.2zm6.38 2.67c0.78 0.65 2.21 2.56 3.17 4.25 0.96 1.7 1.64 3.1 1.5 3.12-0.14 0.02-1.56-1.89-3.17-4.25-1.61-2.36-2.28-3.76-1.5-3.12zm46.92 3.42c0.27 0.01-0.63 0.87-2 1.92-1.38 1.04-5.99 4.39-18 12.99l0.61-3.25c0.34-1.79 1.01-3.92 1.49-4.75 0.53-0.91 0.6-0.13 0.18 2-0.58 2.93-0.45 3.34 0.77 2.53 0.8-0.53 4.82-3.33 8.95-6.21 4.12-2.88 7.73-5.23 8-5.23zm-15.58 1.91c0.18 0 0.04 0.68-0.3 1.51-0.34 0.83-0.73 1.28-0.87 1-0.14-0.28 0-0.96 0.3-1.51 0.3-0.55 0.69-1 0.87-1zm-34.28 5.25c2.83 1.79 5.31 3.59 5.5 4 0.2 0.41-1.94-0.71-4.75-2.5-2.82-1.79-5.29-3.59-5.5-4-0.22-0.41 1.92 0.71 4.75 2.5zm9.36-0.25c0.79 1.38 1.43 3.18 1.43 4-0.01 0.83-0.68-0.07-1.5-2-0.81-1.92-1.45-3.72-1.42-4 0.03-0.27 0.7 0.63 1.49 2zm-0.72 6.52c1.82 1.58 2.29 1.68 2.32 0.48 0.01-0.82 0.45-0.37 0.97 1 0.52 1.38 0.83 2.61 0.69 2.74-0.14 0.13-1.61-1.21-3.26-2.98-1.65-1.78-1.97-2.34-0.72-1.24z"/>
	</g>
</svg>